
    <svg
      xmlns="http://www.w3.org/2000/svg"
      width="44"
      height="44"
      x="0"
      y="0"
      version="1.1"
      viewBox="0 0 200 200"
      xmlSpace="preserve"
    >
      <path
        fill="#FFF"
        d="M91 201H1.028V1.09h199.819V201H91M50.12 77.924c-.174.216-.35.43-.68.784 0 0-.185.377-1.15.328l-.948-15.132c-11.834-2.143-18.841 1.404-25.326 13.121h12.311v61.261h13.056c.3-5.696.58-10.976 1.401-15.639 16.103 21.111 46.52 21.366 61.628.465h41.855v15.297h13.458v-15.353h15.055v-11.242h-15.391v-48.34c-1.014.073-1.674-.084-1.931.169-15.774 15.494-31.515 31.021-47.267 45.478.224-2.714.447-5.427.815-9.004-.657-23.762-22.314-41.023-45.474-35.83-8.392 1.882-16.303 5.256-20.545 13.718 0 0-.035-.068-.867-.08z"
        opacity="1"
      ></path>
      <path
        fill="#6C6C6C"
        d="M116.199 110.189c15.744-15.525 31.485-31.052 47.259-46.546.257-.253.917-.096 1.93-.169v48.34h15.392v11.242h-15.055v15.353h-13.458v-15.297c-14.34 0-28.097 0-42.69-.023-1.916-.094-2.996-.166-4.705-.28l11.327-12.62m24.726-8.764c-3.273 3.205-6.547 6.41-10.531 10.313h21.426v-21.7c-4.043 4.235-7.219 7.561-10.895 11.387z"
        opacity="1"
      ></path>
      <path
        fill="#FE7A04"
        d="M116.195 109.655c-3.61 4.56-7.223 8.587-11.323 13.155 1.71.113 2.789.185 4.27.301-13.839 20.902-44.255 20.647-60.749-.97-8.31-13.855-9.413-27.114.031-40.295.53-.74.566-1.832.831-2.76 0 0 .184-.378.488-.278.605-.223.907-.547 1.209-.87 0 0 .035.067.36.073 1.008-.452 1.72-.874 2.372-1.374 11.074-8.478 25.105-9.246 36.44-1.28 3.271 2.3 5.352 6.293 7.631 9.5-8.823-8.792-20.844-10.624-30.738-4.64-9.579 5.793-13.986 17.421-10.645 28.088 3.44 10.988 13.909 17.762 25.867 16.738 11.612-.995 19.51-9.71 22.262-24.065 4.427 0 8.394.001 12.361.003a561.98 561.98 0 00-.667 8.674z"
        opacity="1"
      ></path>
      <path
        fill="#706F6F"
        d="M48.773 79.06c.217.954.18 2.047-.349 2.786-9.444 13.18-8.34 26.44-.302 39.985-.159 5.479-.438 10.759-.74 16.455H34.328v-61.26h-12.31C28.5 65.307 35.507 61.76 47.341 63.903c.314 5.005.631 10.069 1.43 15.157z"
        opacity="1"
      ></path>
      <path
        fill="#6D6B6A"
        d="M116.934 100.549c-4.04.43-8.006.428-12.527.047-2.47-5.496-4.387-10.613-6.304-15.729-2.627-3.217-4.708-7.21-7.98-9.51-11.334-7.966-25.365-7.198-36.44 1.28-.652.5-1.363.922-2.401 1.35 3.947-8.444 11.858-11.818 20.25-13.7 23.16-5.193 44.817 12.068 45.402 36.262zM50.536 77.93c.114.33-.188.655-.715.81-.05-.385.125-.6.715-.81z"
        opacity="1"
      ></path>
      <path
        fill="#FEFEFE"
        d="M141.175 101.175c3.426-3.576 6.602-6.902 10.645-11.136v21.699h-21.426c3.984-3.902 7.258-7.108 10.781-10.563z"
        opacity="1"
      ></path>
      <path
        fill="#FFFEFD"
        d="M97.755 84.858c2.265 5.125 4.182 10.242 6.193 15.74-2.2 14.734-10.097 23.45-21.709 24.445-11.958 1.024-22.427-5.75-25.867-16.738-3.34-10.667 1.066-22.295 10.645-28.088 9.894-5.984 21.915-4.152 30.738 4.64z"
        opacity="1"
      ></path>
    </svg>

